<svg width="220" height="36" viewBox="0 0 220 36" fill="none" xmlns="http://www.w3.org/2000/svg">
<mask id="mask0_2790_75855" style="mask-type:luminance" maskUnits="userSpaceOnUse" x="0" y="0" width="220" height="36">
<path d="M220 0H0V36H220V0Z" fill="white"/>
</mask>
<g mask="url(#mask0_2790_75855)">
<path d="M15.3031 29.0045L23.9335 8.20898H30.3685V35.3224H26.1262V12.3572L16.5912 35.4672H13.5397L4.09918 12.502V35.3224H0V8.20898H6.72125L15.3031 29.0045Z" fill="white"/>
<path d="M53.5934 30.9336C52.6862 32.8628 50.0669 35.8551 45.7273 35.8551C39.862 35.8551 35.8574 31.3681 35.8574 25.1923V11.4907H40.2428V24.3725C40.2428 28.8595 42.7703 31.8026 46.775 31.8026C50.7797 31.8026 53.5934 28.7639 53.5934 24.3725V11.4907H57.9332V35.325H53.5934V30.9336Z" fill="white"/>
<path d="M89.5883 35.3219H84.0094C78.5247 35.3219 75.7624 32.6685 75.7624 27.3616V15.4445H70.5859V11.4876H75.7624V5.47852H80.1022V11.4876H89.5883V15.4445H80.1022V26.3478C80.1022 29.821 81.1982 31.2694 84.9654 31.2694H89.5913V35.3219H89.5883Z" fill="white"/>
<path d="M114.723 35.7567H111.243L100.133 11.4907H104.996L113.1 29.8706L121.158 11.4907H125.638L114.721 35.7567H114.723Z" fill="white"/>
<path d="M149.623 23.9382H130.029C130.267 28.3761 133.415 31.852 138.038 31.852C142.661 31.852 144.665 29.2942 145.046 28.5236H149.337C148.956 30.5977 145.95 35.9045 138.038 35.9045C130.745 35.9045 125.641 30.4036 125.641 23.4081C125.641 16.4125 130.742 10.9116 137.606 10.9116C144.47 10.9116 149.62 16.1228 149.62 23.9382H149.623ZM130.315 20.271H144.808C143.712 16.6529 141.184 14.6745 137.609 14.6745C133.796 14.6745 131.22 16.7978 130.315 20.271Z" fill="white"/>
<path d="M158.168 35.3221H153.828V11.4906H158.168V15.882C158.835 14.144 160.838 11.2993 166.369 11.2993H168.913V15.6907H166.274C160.22 15.6907 158.17 17.62 158.17 21.8665V35.3276L158.168 35.3221Z" fill="white"/>
<path d="M178.459 24.8531C173.931 24.323 170.736 22.1505 170.736 17.7619C170.736 13.3732 174.646 10.8154 180.414 10.8154C188.378 10.8154 190.952 14.9636 191.713 17.3766H187.087C186.563 16.748 184.8 14.5783 180.412 14.5783C176.837 14.5783 175.024 15.8818 175.024 17.6171C175.024 19.3523 176.218 20.3661 179.029 20.7049C180.887 20.9454 182.032 21.0438 184.082 21.2843C189.661 22.0084 192.042 24.4186 192.042 28.81C192.042 32.8161 188.419 35.9997 181.746 35.9997C173.45 35.9997 170.542 30.8376 170.018 28.6679H174.644C174.881 29.4385 176.788 32.1411 181.749 32.1411C185.753 32.1411 187.708 30.6928 187.708 28.8128C187.708 26.9327 186.707 25.8205 183.512 25.4352L178.459 24.8559V24.8531Z" fill="white"/>
<path d="M92.832 0H97.3608V6.89997H92.832V0ZM92.9267 11.4826H97.2661V35.3169H92.9267V11.4826Z" fill="white"/>
<path d="M63.4238 4.16211H67.7636V35.3172H63.4238V4.16211Z" fill="white"/>
<path d="M209.464 14.5295L220.001 8.87294L218.23 5.45166L208.581 9.373C208.333 9.47414 208.057 9.47414 207.809 9.373L198.16 5.45166L196.389 8.87294L206.926 14.5295L196.389 20.1862L198.16 23.6074L207.809 19.6861C208.057 19.585 208.333 19.585 208.581 19.6861L218.23 23.6074L220.001 20.1862L209.464 14.5295Z" fill="#23F7DD"/>
</g>
</svg>