<?xml version="1.0" encoding="UTF-8"?>
<svg width="775.76" height="106.28" version="1.1" viewBox="0 0 775.76 106.28" xmlns="http://www.w3.org/2000/svg">
    <path d="m214.93 86.679h-58.732v-56.612h-23.47v76.209h67.01z" fill="#c6fd7c"/>
    <path d="m304.84 86.679h-58.73v-56.612h-23.473v76.209h67.017z" fill="#c6fd7c"/>
    <path d="m336.45 30.067h-23.976v76.209h23.976z" fill="#c6fd7c"/>
    <path d="m408.26 55.939 13.573 20.07c2.488 3.6249 5.659 8.2781 7.693 10.995-3.624-0.2228-8.941-0.2228-13.462-0.2228h-18.968l-14.129 19.496h87.981l-47.268-68.556c-3.283-4.7647-7.916-8.5095-14.933-8.5095-7.351 0-11.967 4.0876-15.155 8.5095l-48.517 68.556h27.712z"
          fill="#c6fd7c"/>
    <path d="m500.14 60.475 46.784 41.519c3.648 3.411 6.5241 4.2824 9.5081 4.2824 6.847 0 12.987-4.4014 12.983-14.438l-0.0237-62.238h-21.56l0.0237 44.118-46.784-41.519c-3.768-3.4109-6.614-4.0675-9.486-4.0675-6.735 0-12.932 4.0674-12.936 14.104l-0.0262 64.041h21.447z"
          fill="#c6fd7c"/>
    <path d="m626.03 106.28h37.94l15.022-19.379h-52.962c-12.76 0-22.132-7.3257-22.132-18.033 0-10.707 9.483-18.348 22.132-18.348h37.94l15.022-19.592h-52.962c-26.203 0-45.51 14.873-45.51 36.969 0 21.807 19.307 38.383 45.51 38.383z"
          fill="#c6fd7c"/>
    <path d="m775.75 86.679h-64.58v-10.367h46.642l13.511-17.315h-60.153v-9.1096h49.139l15.209-19.821h-87.965v76.209h73.099z"
          fill="#c6fd7c"/>
    <path d="m61.631 91.333 38.286 14.85 21.674 0.094-30.91-57.251-25.889 13.891 26.121 14.011 9.0039 12.145-37.318-13.386c-0.6132-0.2453-1.2973-0.2453-1.9105 0l-37.318 13.386 9.0039-12.145 26.121-14.011-26.121-14.011-32.375 57.345 23.371-0.094z"
          fill="#c6fd7c"/>
    <path d="m62.569 50.088 23.513-9.5561-24.472-40.532-24.592 40.523 23.642 9.6074c0.3051 0.1202 0.6313 0.1783 0.9591 0.171 0.3279-0.0074 0.651-0.0801 0.9505-0.2138z"
          fill="#c6fd7c"/>
</svg>
