<?xml version="1.0" encoding="UTF-8"?>
<svg width="400" height="400" version="1.1" viewBox="0 0 400 400" xmlns="http://www.w3.org/2000/svg"><path d="m53.179 205.35 8.7321-20.882h6.5026v27.226h-4.2978v-23.049l-9.6353 23.195h-3.0835l-9.5507-23.049v22.915h-4.1314v-27.248h6.7919z" fill="#fff"/><path d="m91.872 207.29c-0.7375 1.4848-1.872 2.7336-3.2761 3.606-1.4041 0.8725-3.0223 1.3341-4.6728 1.3331-5.9242 0-9.9737-4.5055-9.9737-10.701v-13.761h4.4234v12.935c0 4.5028 2.5514 7.4581 6.6009 7.4581 4.1886 0 6.8874-3.0513 6.8874-7.4581v-12.935h4.3851v23.93h-4.3742z" fill="#fff"/><path d="m128.24 211.7h-5.6377c-5.5394 0-8.3336-2.6644-8.3336-7.9931v-11.966h-5.2311v-3.9705h5.2311v-6.0367h4.3851v6.0367h9.5862v3.9705h-9.5862v10.948c0 3.4875 1.1079 4.9391 4.9118 4.9391h4.6717z" fill="#fff"/><path d="m153.64 212.14h-3.503l-11.224-24.366h4.912l8.186 18.456 8.143-18.456h4.527z" fill="#fff"/><path d="m188.91 200.27h-19.803c0.243 4.4561 3.422 7.9574 8.096 7.9574 4.767 0 6.694-2.5683 7.081-3.3421h4.331c-0.385 2.0827-3.422 7.4087-11.417 7.4087-7.368 0-12.528-5.5236-12.528-12.548 0-7.2166 5.155-12.545 12.094-12.545 6.991-0.011 12.146 5.2218 12.146 13.07zm-19.514-3.6824h14.648c-1.11-3.633-3.662-5.6196-7.275-5.6196-3.855 0-6.456 2.132-7.373 5.6196z" fill="#fff"/><path d="m197.55 211.7h-4.385v-23.93h4.385v4.4068c0.674-1.7452 2.696-4.6016 8.285-4.6016h2.57v4.4068h-2.666c-6.118 0-8.186 1.9399-8.186 6.2013z" fill="#fff"/><path d="m218.05 201.2c-4.576-0.5488-7.804-2.7275-7.804-7.1343 0-4.2147 3.951-6.9779 9.78-6.9779 8.047 0 10.642 4.1681 11.417 6.5855h-4.672c-0.529-0.6311-2.314-2.8098-6.745-2.8098-3.613 0-5.458 1.3061-5.458 3.0513 0 1.6958 1.206 2.7604 4.047 3.1007 1.88 0.2414 3.034 0.3375 5.108 0.5817 5.635 0.7244 8.044 3.1473 8.044 7.5568 0 4.0199-3.662 7.2166-10.407 7.2166-8.38 0-11.322-5.1833-11.851-7.362h4.674c0.24 0.7738 2.167 3.4876 7.177 3.4876 4.047 0 6.022-1.4543 6.022-3.3422 0-1.8878-1.012-3.0183-4.237-3.3915z" fill="#fff"/><path d="m131.52 176.23h4.5762v6.9285h-4.5762zm0.0955 11.525h4.3824v23.933h-4.3824z" fill="#fff"/><path d="m101.81 180.41h4.3851v31.281h-4.3851z" fill="#fff"/><path d="m249.38 190.82 10.643-5.68-1.788-3.4217-9.75 3.9266c-0.25 0.1016-0.53 0.1016-0.78 0l-9.75-3.9266-1.793 3.4327 10.642 5.68-10.642 5.68 1.793 3.4326 9.75-3.9567c0.25-0.1017 0.53-0.1017 0.78 0l9.75 3.9375 1.793-3.4327z" fill="#23f7dd"/><path d="m270.43 212.02h8.572c8.529 0 14.98-5.6716 14.98-15.153s-6.451-15.153-14.98-15.153h-8.572zm2.9-2.6842v-24.938h5.759c6.147 0 11.819 3.7667 11.819 12.469s-5.672 12.469-11.819 12.469z" fill="#fff"/><path d="m308.62 212.37c6.408 0 10.997-4.6757 10.997-11.256 0-6.5807-4.589-11.256-10.997-11.256s-10.997 4.6758-10.997 11.256c0 6.5808 4.589 11.256 10.997 11.256zm0-2.511c-4.849 0-8.139-3.6367-8.139-8.7455 0-5.1087 3.29-8.7454 8.139-8.7454s8.139 3.6367 8.139 8.7454c0 5.1088-3.29 8.7455-8.139 8.7455z" fill="#fff"/><path d="m333.51 212.37c5.499 0 8.833-2.7275 9.612-7.1002h-2.598c-0.866 2.8574-3.42 4.5892-7.014 4.5892-5.152 0-7.576-4.0264-7.576-8.7455 0-4.719 2.381-8.7454 7.576-8.7454 3.594 0 6.581 2.1214 7.014 4.9788h2.684c-0.736-4.8056-5.065-7.4899-9.698-7.4899-6.927 0-10.433 5.5417-10.433 11.256 0 5.7149 3.506 11.256 10.433 11.256z" fill="#fff"/><path d="m354.99 212.37c4.719 0 7.88-2.4244 7.88-6.2343 0-10.044-13.032-3.9831-13.032-10.304 0-2.0781 1.862-3.4635 4.676-3.4635 2.078 0 5.152 0.9525 5.498 4.0264h2.728c-0.26-3.9398-3.42-6.5375-8.053-6.5375-4.676 0-7.706 2.3379-7.706 5.9746 0 9.4815 13.031 3.1605 13.031 10.304 0 1.9915-1.991 3.7233-5.022 3.7233-3.463 0-5.498-1.6452-5.801-4.7191h-2.728c0.347 4.5026 3.594 7.2301 8.529 7.2301z" fill="#fff"/></svg>
