<?xml version="1.0" encoding="UTF-8"?>
<svg class="sc-23c8872-0 dcDulg" width="100" height="100" version="1.1" viewBox="0 0 100 100" xmlns="http://www.w3.org/2000/svg"><path d="m19.248 38.004 3.7301-0.5406c0.135-0.0195 0.2551 0.0878 0.2505 0.2243l-0.0368 1.1036c-0.0097 0.2906 0.2549 0.5136 0.5397 0.4551l1.2763-0.2628c0.2087-0.0431 0.3586-0.2268 0.3586-0.4401v-2.3119c0-0.32167-0.2871-0.56736-0.6049-0.5177l-3.0802 0.48076c-1.5383 0.24018-2.9278-0.94931-2.9278-2.5062v-3.854c0-1.7044 1.3816-3.086 3.086-3.086h5.2421c1.4726 0 2.6634 1.1993 2.6527 2.6718l-0.0096 1.3543c-2e-3 0.27562-0.2176 0.50228-0.4927 0.518l-3.5403 0.20224c-0.2641 0.01511-0.4866-0.19503-0.4866-0.45964v-1.0484c0-0.23157-0.1994-0.41288-0.4299-0.39085l-1.247 0.11873c-0.2015 0.01923-0.3554 0.18842-0.3554 0.39086v2.582c0 0.2591 0.2207 0.46324 0.479 0.44332l3.6099-0.27903c1.3962-0.10792 2.5885 0.99586 2.5885 2.3962v2.7732c0 1.728-1.2376 3.2078-2.9382 3.5134l-5.6 1.0064c-1.3436 0.2415-2.5742-0.8014-2.5563-2.1664l0.0239-1.8365c0.0035-0.269 0.2021-0.4954 0.4684-0.534z" fill="#fff"/><path d="m31.527 26.813h4.4516v10.353c0 0.2617 0.2237 0.4675 0.4844 0.4457l1.4281-0.119c0.2318-0.0193 0.4101-0.213 0.4101-0.4456v-10.298h4.6452v10.063c0 1.6422-1.2576 3.0109-2.894 3.1496l-6.0876 0.5159c-1.3117 0.1111-2.4378-0.9235-2.4378-2.2399z" fill="#fff"/><g transform="translate(7.1402 26.749)" opacity=".39999"><g opacity=".39999"><path d="m37.807 12.774v-6e-3c-0.0017 0.0019-0.0021 0.0039 0 6e-3z" fill="#fff" opacity=".39999"/></g></g><path d="m51.447 32.878h-2.0489v-3.6774l1.9884-0.05236c0.2551-0.0067 0.4668 0.19593 0.4712 0.45103l0.0484 2.8116c0.0045 0.2567-0.2024 0.46715-0.4591 0.46715zm2.2199-6.0646h-8.7205v12.705c0.0759-0.0857 4.5807 0.0697 4.5807 0.0697v-4.2581h4.2366c1.5083 0 2.7312-1.2228 2.7312-2.7312v-2.957c0-1.5618-1.2662-2.828-2.828-2.828z" fill="#fff"/><path d="m67.786 26.749h-9.9354v12.968s3.0323 0.1935 5.2257 0.3871c2.1936 0.1936 5.0324 0.5806 5.0324 0.5806v-2.7742l-5.742-0.387v-2.7742l4.7743 0.19352-0.0646-2.7741-4.7097-0.12905v-2.5807l5.4839 0.06457z" fill="#fff"/><path d="m76.301 33.363c0 0.26-0.2216 0.46484-0.4808 0.44431l-1.9707-0.15558 0.0645-4 1.9293-0.05216c0.2508-0.0068 0.4577 0.19463 0.4577 0.44552zm2.1936 3.45c1.2502 0.1043 2.3225-0.88239 2.3225-2.137v-5.0134c0-1.6094-1.3045-2.914-2.9139-2.914h-8.5054v14.129l4.5807 0.8386v-5.0537c0-0.11583 0.1575-0.15007 0.2057-0.04485l2.5685 5.6147 4.9677 0.9678z" fill="#fff"/><path d="m16.697 60.387c-0.0047 0.3507-0.27672 0.6397-0.62653 0.6655l-2.8657 0.2124v-4.9032l2.8377-0.1033c0.38665-0.0141 0.70632 0.2984 0.70111 0.6852zm-0.18111 8.313c-0.01231 0.2955-0.22056 0.5464-0.50869 0.6129l-2.8669 0.6617v-4.9678l2.7765-0.3534c0.40357-0.0514 0.75638 0.2727 0.73946 0.6791zm6.1728-9.0636v-3.221c0-2.0963-1.4414-3.6666-3.5377-3.6666h-12.011v22.452l11.708-2.7693c2.2505-0.5323 3.8402-2.5416 3.8402-4.8543v-3.2152c0-1.056-0.8176-2.1208-1.871-2.1935 1.2151-0.1474 1.871-1.3076 1.871-2.5317z" fill="#fff"/><path d="m38.947 52.62h-13.613v18.774s5.3548-0.8387 7.8064-1.0968c2.4516-0.258 6.1291-0.5806 6.1291-0.5806v-3.2258l-7.8065 0.4517v-3.613l6.4516-0.4516-0.0645-3.3548-6.3871 0.258v-3.6774l7.4193-0.1291z" fill="#fff"/><path d="m69.785 60.196c0 0.3391-0.2784 0.612-0.6175 0.6056l-2.7374-0.0528-0.0645-4.7741 2.8365 0.107c0.3254 0.0123 0.5829 0.2796 0.5829 0.6053zm3.1612 4.0368 0.2275 0.0338c1.4773 0.2201 2.8048-1.3144 2.8048-2.808v-5.1505c0-2.037-1.8987-3.6236-3.9355-3.6236l-11.742-0.0646v17.097l6.2581 0.6451v-6.0918c0-0.1386 0.1868-0.1832 0.2493-0.0592l3.2991 6.5381 7.0967 0.9033z" fill="#fff"/><path d="m86.947 59.136 6.1935 0.5161v-2.9818c0-2.2096-1.7762-4.0086-3.9855-4.0368l-7.3027-0.0932c-2.1275-0.0271-3.8634 1.6962-3.8516 3.8238l0.0215 3.9224c0.0124 2.2072 1.6877 4.0495 3.8838 4.2708l4.3468 0.4378c0.4308 0.0433 0.7588 0.406 0.7588 0.8389v3.1943c0 0.2917-0.2636 0.5125-0.5508 0.4614l-1.7277-0.3071c-0.3615-0.0643-0.6248-0.3786-0.6248-0.7458v-1.7525l-5.9355-0.9031-0.0257 2.3203c-0.0227 2.0443 1.3598 3.8373 3.3427 4.3352l7.7732 1.9517c1.9081 0.4791 3.7609-0.9562 3.7738-2.9236l0.0392-5.9855c0-2.0589-1.5679-3.7792-3.6182-3.9696l-4.7343-0.4397c-0.3834-0.0355-0.6748-0.3605-0.6685-0.7456l0.0533-3.2099c0-0.2732 0.2214-0.4947 0.4946-0.4947h1.4946c0.4692 0 0.8495 0.3804 0.8495 0.8496z" fill="#fff"/><path d="m54.025 60.455c-0.3173 0.4905-0.9437 0.6454-0.9437 0.6454-0.513-0.0858-0.7178-0.753-0.5278-1.5975 0.1899-0.8444 0.9022-1.5123 1.4651-1.3857 0.563 0.1267 0.3238 1.8473 0.0064 2.3378zm-2.3687-1.9648c-0.5633-0.2472-0.7155-1.1483-0.3871-2.1291 0.3157-0.9432 1.1214-1.5263 1.6847-1.2791 0.5633 0.2471 0.6504 1.4006 0.2508 2.3114-0.3998 0.9109-0.9852 1.344-1.5484 1.0968zm0.1935 3.4839c-0.0645 0.7742-0.5348 1.3426-1.6774 0.9031-0.8387-0.3225-0.7742-0.7096-1.2904-0.9677-0.4929-0.2465-1.5483 0.2581-2.387-0.5806s0.387-1.6774 1.2903-2c0.9032-0.3226 1.8065-1.6129 2.5162-1.4194 0.7096 0.1936 0.5806 1.2903 0.7741 1.871 0.1936 0.5807 0.8388 1.4193 0.7742 2.1936zm-5.8709-4.4516c0.0644-0.5807 0.9677-2.0646 1.4838-1.8065 0.5161 0.258 0.6451 1.2258 0.2581 2-0.3871 0.7742-0.9677 1.1613-1.4194 0.9032 0 0-0.3871-0.5161-0.3225-1.0967zm2.7153-2.1421c0.3997-0.9108 1.1803-1.4488 1.7436-1.2017 0.5632 0.2471 0.6959 1.1859 0.2962 2.0967-0.3996 0.9109-1.1803 1.4489-1.7435 1.2018-0.5633-0.2471-0.6959-1.1859-0.2963-2.0968zm6.3814-2.6966h-10.516c-1.9598 0-3.5484 1.5886-3.5484 3.5483v13.484l6.129-0.258v-4.9678h5.0968v5.0322l6.3872 0.0645v-13.355c0-1.9597-1.5888-3.5483-3.5485-3.5483z" fill="#fff"/><path d="m31.689 50.039h1.4839v-0.0389h-1.4839z" fill="#fff"/><path d="m51.6 50.039h1.4838v-0.0389h-1.4838z" fill="#fff"/><path d="m41.463 50.007h1.4838v-0.0066h-1.4838z" fill="#fff"/><path d="m63.743 50.039h4.8494v-0.0389h-5.232c0.1237 0.0255 0.2515 0.0389 0.3826 0.0389z" fill="#fff"/><path d="m37.243 44.071c0.2282 0 0.414 0.1857 0.414 0.414v0.6666c0 0.5781-0.4703 1.0484-1.0484 1.0484h-2.6936v1.4839h0.7921l-0.0442-0.0421 1.0205-1.0771 1.1688 1.1073c1.2824-0.1231 2.2887-1.2063 2.2887-2.5204v-0.6666c0-1.0465-0.8514-1.8979-1.8979-1.8979h-4.5216c-0.5691 0-1.0322 0.4631-1.0322 1.0322v6.3806h1.484v-5.9289z" fill="#fff"/><path d="m36.608 47.684h-1.9014l2.4446 2.316h2.1576l-2.4572-2.3279c-0.0802 0.0077-0.1614 0.0119-0.2436 0.0119z" fill="#fff"/><path d="m34.663 47.642 0.0443 0.0419h1.9014c0.0822 0 0.1634-0.0042 0.2436-0.0119l-1.1689-1.1073z" fill="#fff"/><path d="m57.154 44.071c0.2282 0 0.414 0.1857 0.414 0.414v0.6666c0 0.5781-0.4703 1.0484-1.0484 1.0484h-2.6936v1.4839h0.7922l-0.0444-0.0421 1.0206-1.0771 1.1688 1.1073c1.2824-0.1231 2.2886-1.2063 2.2886-2.5204v-0.6666c0-1.0465-0.8514-1.8979-1.8978-1.8979h-4.5215c-0.5693 0-1.0323 0.4631-1.0323 1.0322v6.3806h1.4839v-5.9289z" fill="#fff"/><path d="m56.519 47.684h-1.9014l2.4447 2.316h2.1576l-2.4573-2.3279c-0.0802 0.0077-0.1614 0.0119-0.2436 0.0119z" fill="#fff"/><path d="m54.574 47.642 0.0443 0.0419h1.9016c0.0822 0 0.1632-0.0042 0.2434-0.0119l-1.1687-1.1073z" fill="#fff"/><path d="m42.601 48.362-0.0192-1.4838 0.3644-0.0048v-0.8017c0-0.6912 0.8381-1.9678 2.0323-1.9678h2.4193v2.7118l0.1516-2e-3 0.0193 1.4837-0.1709 0.0022v1.6431h1.4839v-6.5807c0-0.4097-0.3322-0.7419-0.742-0.7419h-3.1612c-0.942 0-1.8443 0.4211-2.5406 1.186-0.6108 0.6709-0.9756 1.5178-0.9756 2.2656v3.9289h1.4839v-1.6431z" fill="#fff"/><path d="m42.947 46.873v1.484l4.4516-0.0579v-1.484z" fill="#fff"/><path d="m42.583 46.878 0.0192 1.4837 0.3452-0.0045v-1.4839z" fill="#fff"/><path d="m47.55 46.813-0.1517 2e-3v1.4839l0.1709-0.0022z" fill="#fff"/><path d="m63.743 48.555c-0.2253 0-0.4086-0.1833-0.4086-0.4086v-4.1076h5.258v-1.4838h-5.4623c-0.7056 0-1.2796 0.574-1.2796 1.2796v4.3118c0 0.9125 0.6491 1.6762 1.5099 1.8536h5.232v-1.445z" fill="#fff"/><path d="m64.915 47.071h3.0968v-1.4838h-3.0968z" fill="#fff"/></svg>
