<?xml version="1.0" encoding="UTF-8"?>
<svg width="420" height="420" version="1.1" viewBox="0 0 420 420" xmlns="http://www.w3.org/2000/svg"><path d="m110.75 177.39h-25.157v64.036h25.157c17.655 0 30.646-14.18 30.646-32.018 0-17.93-12.991-32.018-30.646-32.018zm0 53.974h-14.637v-43.911h14.637c12.167 0 20.491 9.2395 20.491 21.955 0 12.624-8.324 21.955-20.491 21.955zm47.372-8.5992h36.41c0.183-1.2807 0.366-2.7444 0.366-4.1166 0-13.173-9.331-24.151-22.962-24.151-14.363 0-24.151 10.52-24.151 24.059 0 13.722 9.788 24.059 24.883 24.059 8.965 0 15.826-3.7507 20.034-9.9713l-8.142-4.757c-2.195 3.2018-6.312 5.6718-11.801 5.6718-7.318 0-13.081-3.6593-14.637-10.795zm-0.091-8.0503c1.372-6.861 6.404-11.252 13.813-11.252 5.947 0 11.71 3.3848 13.082 11.252zm74.785-19.028-12.715 34.763-12.808-34.763h-10.794l17.838 45.74h11.435l17.839-45.74z" fill="#d3d6ff"/><path d="m288.47 177.39v26.255h-27.444v-26.255h-10.52v64.036h10.52v-27.719h27.444v27.719h10.521v-64.036zm53.509 18.296v24.517c0 9.331-5.123 13.173-11.618 13.173-6.22 0-10.245-3.6592-10.245-10.612v-27.078h-9.88v28.084c0 11.892 7.318 18.845 17.564 18.845 6.221 0 11.161-2.287 14.179-7.044v5.8548h9.88v-45.74zm47.322-1.1893c-7.135 0-12.532 2.9274-16.009 7.6844v-24.791h-9.88v64.036h9.88v-6.5866c3.477 4.8485 8.874 7.7758 16.009 7.7758 12.442 0 22.779-10.52 22.779-24.059 0-13.631-10.337-24.059-22.779-24.059zm-1.555 38.696c-8.233 0-14.454-6.1292-14.454-14.637s6.221-14.637 14.454-14.637 14.454 6.1292 14.454 14.637-6.221 14.637-14.454 14.637z" fill="#27ae7d"/><path d="m38.945 191.87 26.168-14.616-4.401-8.8404-23.961 10.132c-0.6174 0.2613-1.3004 0.2613-1.9178 0l-23.961-10.132-4.401 8.8404 26.168 14.616-26.168 14.616 4.401 8.8404 23.961-10.133c0.6174-0.261 1.3004-0.261 1.9178 0l23.961 10.133 4.401-8.8404z" fill="#27ae7d"/></svg>
